PathFileType	4	(X/Y/Z)	Patient4_TMGait_0pt5_01_left_25.trc.trc
DataRate	CameraRate	NumFrames	NumMarkers	Units	OrigDataRate	OrigDataStartFrame	OrigNumFrames
73.684210526316	73.684210526316	6	33	mm	73.684210526316	89	       141
Frame#	Time	L.ASIS			Sacral			L.Shoulder			Chest			R.Shoulder			Neck			R.ASIS			R.Thigh.Superior			R.Thigh.Lateral			R.Thigh.Inferior			R.Patella			L.Thigh.Superior			L.Thigh.Lateral			L.Thigh.Inferior			L.Patella			L.Shank.Superior			L.Shank.Lateral			L.Shank.Inferior			R.Shank.Superior			R.Shank.Lateral			R.Shank.Inferior			R.Heel			R.Midfoot.Superior			R.Midfoot.Lateral			R.Toe			L.Heel			L.Midfoot.Lateral			L.Midfoot.Superior			L.Toe			L.Elbow			L.Wrist			R.Elbow			R.Wrist			
		X1	Y1	Z1	X2	Y2	Z2	X3	Y3	Z3	X4	Y4	Z4	X5	Y5	Z5	X6	Y6	Z6	X7	Y7	Z7	X8	Y8	Z8	X9	Y9	Z9	X10	Y10	Z10	X11	Y11	Z11	X12	Y12	Z12	X13	Y13	Z13	X14	Y14	Z14	X15	Y15	Z15	X16	Y16	Z16	X17	Y17	Z17	X18	Y18	Z18	X19	Y19	Z19	X20	Y20	Z20	X21	Y21	Z21	X22	Y22	Z22	X23	Y23	Z23	X24	Y24	Z24	X25	Y25	Z25	X26	Y26	Z26	X27	Y27	Z27	X28	Y28	Z28	X29	Y29	Z29	X30	Y30	Z30	X31	Y31	Z31	X32	Y32	Z32	X33	Y33	Z33	

89	34.594285714286	842.742969172195	958.915868793436	340.097718800807	624.770398921539	999.467503857552	491.929925537796	796.286477801122	1431.599245723244	314.374958229724	890.798401003642	1366.460328774829	481.856969877554	793.054474109993	1439.224814098091	649.911482190238	785.714859776411	1493.283363741694	465.303101556568	852.463798725817	940.562659893946	613.969347565959	912.593211851123	749.543397576520	582.149552866276	841.913901928845	634.863597770696	642.647263523221	923.371269134055	588.897676154039	561.781886589896	931.740851541764	500.460241116859	568.128227503344	874.473286254162	736.413597156659	365.894798896337	780.505904027836	624.619251627304	305.192753303149	860.803915690802	538.832454129167	365.556519023078	852.122580728825	455.725079439540	366.932575097902	791.082250558546	395.151405236216	362.088474084829	658.870841295635	332.797304613070	311.203529623060	659.096382113554	207.379728267559	375.691205557446	910.665199073081	410.071457413138	577.214567645559	846.988784012844	302.388941870685	639.720598516366	896.521743350364	210.418684840256	578.631621500434	771.739844960250	41.859921323808	551.329720394845	942.410789923239	99.661515181540	582.763253549063	857.037647926269	36.266260307535	624.307501777965	1063.437208787774	51.513401976582	607.454915148648	479.553382963684	108.419926334960	413.122316296994	547.384397245569	76.101860831330	335.748312953047	645.387690309280	110.193049180461	358.252132348098	747.769362184782	34.281181347104	336.521298932534	810.021512689398	1081.871278435881	184.032955339357	1028.521705620927	940.060021138885	200.712725255041	712.025061953918	1107.195787158830	774.576594329913	818.703401035015	869.553108114565	791.911294196901	
90	34.607857142857	841.003621373310	959.332690618615	341.519145742920	624.093049743434	999.844413861407	495.324393860884	793.694369870923	1432.778658961369	317.327848794786	890.054708313508	1366.932985545668	483.494151909068	794.183944806197	1438.943800768461	652.846583886435	784.728895851735	1493.776389205888	468.691680854963	852.811250733699	941.484326848320	615.326021677925	911.014372854994	748.732995291930	584.371917177940	839.038511233053	634.875691606291	644.377509891569	919.723686957597	588.273028538678	563.096049235268	927.085245463488	499.983536601555	568.845794027000	878.743391266140	739.024635297859	368.065407615477	789.783680728826	624.520213065382	306.648909874588	873.321687239743	540.766476363926	366.823028995415	865.968776290026	456.168131048400	367.422504199798	802.535702468935	395.732142729089	362.746899380051	667.914069958634	338.832263009359	311.737558004285	663.252498661997	213.211066876035	375.423497503679	905.744344986829	409.692652402423	577.938735012757	841.811843492723	302.126142744439	640.261338691531	890.594738720623	210.134011454053	578.868469508422	765.016099334627	41.892512587360	551.438351259010	935.697687892751	99.552451218825	582.838963904983	850.288010951846	36.225836242226	624.440680225932	1056.713599533727	51.420125808490	607.561045047629	479.562685270899	124.089915103047	412.455461936691	545.295810808609	87.165284318896	335.350675263088	645.157111281619	115.112411395794	357.684703395641	741.641900596521	33.419895155237	336.676721378776	802.715938926430	1082.894150859989	186.688092587281	1017.727994463657	935.161454703223	201.143547719061	719.552463106427	1105.849818021240	779.477502210830	833.804710006416	871.751787551262	795.888331696575	
91	34.621428571429	839.083202242012	959.550035458804	342.937049867475	623.255926569333	1000.104623183240	498.630111755852	790.960138597556	1433.690237052610	320.075280419590	889.227866622393	1367.237151575116	484.921083544012	795.271172749710	1438.561155791760	655.557296591861	783.699453482616	1494.100819143388	471.825763171078	852.957008754997	942.233272218608	616.638410344174	909.286592654736	747.883198829192	586.437458796146	836.219028695934	634.800611991359	646.053069759069	916.082290942235	587.625449203373	564.314652223655	922.521902692585	499.453485097650	569.531643768382	882.884040294909	741.892898510534	370.234147395718	799.117450413028	624.885163903993	307.912384808129	885.668212725336	543.321344577182	368.076260277204	879.813217997551	457.344336635808	367.995556217705	814.290558930871	396.910798423362	363.375309182320	677.558825507962	345.256131825824	312.213516094194	668.221723197228	219.611886626484	375.219446171860	900.874018099160	409.244080727585	578.615939078065	836.678869662279	301.791912605800	640.763954896144	884.666699679416	209.781242046504	579.044082134495	758.231314326823	41.908480177655	551.511141888219	928.947101678892	99.379283966419	582.857963098538	843.476101780710	36.173618073618	624.539926371497	1049.949864014903	51.203480804998	607.627610932883	480.810357802009	140.304710804460	411.817315745447	544.351507448168	98.967347697394	334.988216630630	645.832657794680	120.683067709725	357.297894939511	736.302665257238	32.659323753786	336.962268324170	795.073190607285	1083.646294843570	189.211808763392	1006.134279212503	929.729821403892	201.384946691728	727.370177258371	1104.538549200217	784.244763412186	849.438684907044	874.381238828942	799.393221992128	
92	34.635000000000	836.988592403264	959.593621400258	344.371089651681	622.259099843615	1000.273037506954	501.823298286621	788.148401868696	1434.340263094017	322.590085066980	888.333571320287	1367.388320976314	486.140466852756	796.302828511078	1438.130759097487	658.020981368238	782.664043429964	1494.283800108667	474.659478332572	852.900607031242	942.808306338064	617.935303780121	907.458078091220	747.049494443459	588.278839253880	833.531529353298	634.663626536165	647.649200945889	912.523139384976	586.976450086281	565.420718799479	918.118629888932	498.880761142204	570.183133418583	886.775832104606	745.029810938521	372.408794018629	808.285133156517	625.782871008405	308.994412686584	897.580788647357	546.522873867616	369.306382955390	893.407830876486	459.291073907845	368.603953950659	826.126074978085	398.709871580264	363.953503892496	687.589130401653	351.894622957619	312.658703143989	673.983035030622	226.344677399378	375.101157081183	896.113387136063	408.739156602478	579.242226605036	831.642348498536	301.416619817038	641.252342441502	878.769692886099	209.377732382894	579.170681532219	751.404945006531	41.914898804070	551.565344355822	922.176124824860	99.167514487240	582.839232673441	836.625188436357	36.119833418116	624.618454466147	1043.164997086155	50.896151798873	607.665909822171	483.375635121000	156.347104399818	411.257899485161	544.763086107871	110.953965092160	334.710537217059	647.581094612016	126.688082390235	357.115509088817	732.223663842455	32.068291957111	337.395695483947	787.168001065990	1084.128660410578	191.643819944198	993.749178253442	923.763805044382	201.463533591772	735.461332630541	1103.311762259566	788.786866989395	865.573551041224	877.548674024744	802.339638416784	
93	34.648571428571	834.737377979915	959.516409897289	345.831606622427	621.110604158080	1000.391520161199	504.894753447507	785.326737537383	1434.757882937321	324.855217345041	887.391797627199	1367.418699614836	487.160694923647	797.275365297916	1437.720685397130	660.221936713866	781.661418299291	1494.367919966624	477.159843875814	852.651431203024	943.226434637913	619.238333304158	905.560838975577	746.273831835671	589.871619746100	830.989102198640	634.487891593748	649.145744527416	909.077141722468	586.341411133609	566.416424495194	913.892547024844	498.278910066429	570.799254116719	890.318928143970	748.441119490320	374.590384220881	817.080505406151	627.253984977005	309.907766283143	908.844481114079	550.364570255873	370.479079165396	906.535595822593	462.014160426274	369.172918144316	837.853534203547	401.119937723984	364.444387862358	697.813715792406	358.523789851187	313.085576546575	680.553755329418	233.107589845813	375.068912931242	891.479311434911	408.197363934939	579.818359465496	826.710120344284	301.031540138570	641.739834005586	872.913564869846	208.946516902245	579.264224697733	744.554187391125	41.918108220919	551.615543027019	915.397644941669	98.943199066977	582.803089551662	829.755398663777	36.072419877087	624.687645894213	1036.373589404048	50.534806439471	607.688104304863	487.345393955055	171.403067336474	410.819295673857	546.764336901179	122.461124727293	334.555426988039	650.623239995804	132.818450925673	357.131457162027	729.962775153077	31.712374885992	337.972498574235	779.073359282396	1084.368016432498	194.034311747082	980.577579869072	917.290181736575	201.417639561945	743.802401150627	1102.227458848566	793.011662132841	882.164982985027	881.374540659625	804.643189589801	
94	34.662142857143	832.355691429326	959.389132515236	347.317021570504	619.826792345351	1000.511310637703	507.846460615985	782.557036847158	1434.987174743788	326.866035931319	886.425144296660	1367.369805774720	487.995131820815	798.196265843984	1437.400924482977	662.153931546757	780.726417279490	1494.402362361036	479.311147955850	852.227239821762	943.516037776116	620.556112863354	903.606795854710	745.579821805524	591.225268882635	828.552836381710	634.293813429235	650.529375558574	905.731424808974	585.728600181787	567.316006761425	909.813488045236	497.662410360648	571.381214219563	893.437407418317	752.117944452398	376.761871010088	825.319541644020	629.302117865657	310.664891079147	919.293217979920	554.802851926878	371.539409100208	919.011114769017	465.485582903408	369.617341368628	849.321393792802	404.096569860379	364.802439083304	708.079674774774	364.876829288646	313.490812885735	687.992098156595	239.553220757306	375.101210410178	886.949432562412	407.640532273494	580.348702813705	821.853037917602	300.663973143928	642.231203738424	867.088380810510	208.512008633927	579.341302401464	737.691793764864	41.922346046267	551.672258456153	908.619187883977	98.728776825580	582.768171954279	822.881195095840	36.036187724388	624.755886665281	1029.584523223620	50.154042468971	607.704933361238	492.821729868533	184.624581980932	410.528405809970	550.602123442329	132.773707726939	334.538293250398	655.221005143820	138.696322952924	357.306666445025	730.123050565104	31.634558357293	338.651953394136	770.859879747238	1084.410016502322	196.436175970533	966.627360158431	910.367015722270	201.298013178522	752.362630428698	1101.342605251526	796.835678308816	899.153142724169	885.978663202886	806.227481320830	
